<?xml version="1.0" standalone="no"?>
<!DOCTYPE svg PUBLIC "-//W3C//DTD SVG 20010904//EN"
 "http://www.w3.org/TR/2001/REC-SVG-20010904/DTD/svg10.dtd">
<svg version="1.0" xmlns="http://www.w3.org/2000/svg"
 width="275.000000pt" height="611.000000pt" viewBox="0 0 275.000000 611.000000"
 preserveAspectRatio="xMidYMid meet">

<g transform="translate(0.000000,611.000000) scale(0.100000,-0.100000)"
fill="#000000" stroke="none">
<path d="M1398 6097 c-7 -7 -20 -11 -27 -9 -12 4 -12 3 0 -11 12 -14 16 -14
25 -1 15 18 28 18 20 -1 -3 -8 -1 -15 4 -15 6 0 10 7 10 15 0 8 5 15 10 15 16
0 24 -31 11 -40 -10 -5 -9 -9 3 -13 12 -5 16 0 17 16 0 12 3 16 6 10 2 -7 12
-13 20 -13 9 0 13 -6 10 -15 -4 -8 -2 -17 3 -20 4 -3 11 1 13 7 4 9 6 7 6 -3
1 -20 22 -38 50 -44 16 -3 21 1 21 16 0 10 -4 19 -10 19 -5 0 -10 -7 -10 -15
0 -13 -3 -13 -20 -3 -11 7 -20 19 -20 26 0 7 -12 24 -27 38 l-28 24 38 -17
c25 -11 37 -23 37 -37 0 -17 2 -18 10 -6 17 24 50 -23 50 -71 0 -46 -5 -48
-33 -13 -23 30 -104 84 -124 84 -7 0 -13 -7 -13 -15 0 -8 -17 -23 -39 -33 -48
-24 -131 -16 -160 14 -18 20 -18 21 5 43 13 13 24 28 24 33 0 6 -13 -4 -30
-22 -16 -18 -28 -36 -25 -40 3 -4 -10 -19 -28 -33 -18 -14 -44 -41 -58 -61
-13 -20 -26 -36 -29 -36 -3 0 -6 18 -6 40 -1 22 2 40 7 40 5 0 9 -10 10 -22 0
-22 1 -22 9 -3 12 28 12 37 0 30 -16 -10 -12 6 7 29 10 12 3 8 -15 -9 -19 -16
-42 -43 -51 -60 -21 -35 -40 -132 -45 -226 -2 -36 -6 -70 -9 -76 -3 -5 -9 -30
-12 -54 -4 -24 -8 -54 -10 -65 -3 -13 5 -32 19 -49 l24 -27 4 93 c4 105 9 119
38 112 15 -4 17 -9 10 -23 -6 -10 -10 -29 -10 -42 l0 -22 15 21 c20 29 78 47
125 39 40 -6 70 0 70 15 0 13 -70 29 -102 22 -20 -4 -33 -1 -38 7 -7 11 -12
11 -26 -1 -35 -28 46 80 104 139 63 63 114 88 161 79 44 -9 109 -57 126 -93 9
-19 19 -34 24 -34 10 0 51 -39 51 -49 0 -12 -27 -22 -73 -26 -45 -5 -77 -21
-77 -39 0 -13 33 -10 111 9 30 8 97 -17 105 -40 9 -22 25 -19 51 11 26 30 24
33 49 -77 11 -50 23 -80 35 -88 16 -9 19 -8 19 5 0 8 -4 12 -10 9 -6 -4 -10 6
-10 24 0 20 7 34 20 41 11 6 20 18 20 26 0 22 -29 75 -57 106 -14 14 -23 31
-19 36 3 5 -1 18 -9 28 -10 13 -14 45 -15 96 0 120 -43 209 -117 242 -21 9
-46 21 -55 26 -10 6 -39 14 -65 20 -26 6 -55 13 -64 16 -9 2 -23 -1 -31 -9z
m-173 -165 c-6 -4 -32 -25 -60 -46 l-50 -38 48 46 c27 25 54 46 60 46 7 0 7
-3 2 -8z"/>
<path d="M1311 6074 c0 -11 3 -14 6 -6 3 7 2 16 -1 19 -3 4 -6 -2 -5 -13z"/>
<path d="M1313 6028 c-21 -5 -33 -15 -33 -26 1 -16 1 -16 13 0 13 17 27 17
110 3 17 -3 26 -1 22 5 -3 6 -19 10 -34 10 -15 0 -31 4 -36 9 -6 4 -24 4 -42
-1z"/>
<path d="M1160 5985 c-11 -13 -10 -14 4 -9 9 3 16 10 16 15 0 13 -6 11 -20 -6z"/>
<path d="M1590 5950 c0 -5 5 -10 11 -10 5 0 7 5 4 10 -3 6 -8 10 -11 10 -2 0
-4 -4 -4 -10z"/>
<path d="M1770 5718 c0 -21 4 -38 9 -38 16 0 19 26 5 51 -13 24 -13 23 -14
-13z"/>
<path d="M1489 5585 c-1 -3 -2 -8 -3 -12 -1 -5 -5 -14 -10 -21 -7 -12 -4 -12
14 -2 17 9 24 9 33 -3 25 -30 117 -32 117 -2 0 22 -30 45 -53 41 -71 -15 -99
-17 -92 -7 3 6 4 11 1 11 -3 0 -7 -2 -7 -5z m56 -25 c3 -5 1 -10 -4 -10 -6 0
-11 5 -11 10 0 6 2 10 4 10 3 0 8 -4 11 -10z m36 -23 c-10 -9 -11 -8 -5 6 3
10 9 15 12 12 3 -3 0 -11 -7 -18z"/>
<path d="M1131 5538 c-11 -28 -6 -38 19 -38 13 0 17 5 14 14 -3 8 -1 17 5 21
6 3 11 3 11 -2 0 -4 4 -14 9 -22 11 -17 51 2 51 24 0 9 6 12 18 8 13 -5 14 -3
5 7 -12 13 -72 10 -107 -5 -14 -6 -17 -5 -12 3 4 7 5 12 1 12 -3 0 -9 -10 -14
-22z"/>
<path d="M1772 5390 c1 -46 -19 -133 -45 -188 -22 -49 -124 -144 -147 -137 -8
2 -30 -9 -48 -25 -40 -35 -117 -53 -203 -48 -32 1 -59 1 -59 -2 0 -3 14 -14
31 -24 30 -17 68 -18 109 -2 9 4 25 -2 38 -14 17 -16 26 -18 41 -10 11 5 32
10 47 10 17 0 35 10 50 28 13 15 28 27 33 27 5 0 27 18 50 40 22 22 44 40 48
40 13 -1 29 39 36 89 4 27 12 55 18 62 6 7 7 19 3 25 -4 7 -3 9 4 5 6 -3 13
-2 17 4 3 5 1 10 -5 10 -8 0 -9 18 -6 58 3 31 2 64 -4 72 -7 11 -9 6 -8 -20z"/>
<path d="M1436 5339 c-15 -12 -25 -23 -22 -26 6 -6 66 29 66 39 0 14 -16 9
-44 -13z"/>
<path d="M1506 5245 c4 -8 10 -15 14 -15 4 0 13 7 20 15 11 13 8 15 -13 15
-19 0 -25 -4 -21 -15z"/>
<path d="M1252 5228 c6 -18 28 -21 28 -4 0 9 -7 16 -16 16 -9 0 -14 -5 -12
-12z"/>
<path d="M1137 5069 c4 -13 8 -18 11 -10 2 7 -1 18 -6 23 -8 8 -9 4 -5 -13z"/>
<path d="M1160 5066 c0 -2 8 -10 18 -17 15 -13 16 -12 3 4 -13 16 -21 21 -21
13z"/>
<path d="M1748 4927 l4 -132 -58 -55 c-32 -30 -57 -61 -56 -69 3 -10 -2 -12
-15 -7 -14 6 -15 5 -6 -5 10 -10 17 -9 33 6 11 10 23 15 28 11 4 -4 -3 -16
-15 -26 -18 -14 -20 -19 -8 -24 8 -3 15 -13 15 -22 0 -11 -5 -14 -16 -10 -9 4
-23 1 -30 -5 -11 -9 -10 -14 6 -28 29 -24 12 -45 -25 -31 -24 9 -31 7 -56 -20
-16 -16 -36 -30 -44 -30 -8 0 -15 -5 -15 -11 0 -5 5 -7 10 -4 6 3 10 2 10 -3
0 -5 -10 -13 -22 -19 -28 -12 -68 5 -68 30 0 9 -4 17 -8 17 -4 0 -13 14 -19
30 -13 34 -25 36 -78 14 -20 -8 -40 -13 -43 -10 -3 3 0 6 7 6 7 0 -2 12 -19
26 l-31 27 -35 -34 c-19 -18 -34 -28 -34 -22 0 6 14 23 31 37 l31 26 -38 88
-38 87 2 135 2 135 -21 -27 c-25 -34 -42 -35 -94 -3 -68 42 -144 29 -183 -30
-14 -23 -30 -35 -45 -35 -19 -1 -20 -2 -6 -10 12 -7 26 -5 45 5 22 11 30 12
33 3 2 -7 -2 -14 -8 -16 -7 -2 -24 -17 -38 -33 -29 -32 -48 -29 -39 6 l6 22
-40 -19 c-24 -12 -40 -27 -39 -37 1 -14 2 -14 6 2 2 9 11 17 18 17 10 0 12 -7
5 -30 -5 -18 -5 -30 1 -30 5 0 9 -7 9 -15 0 -8 6 -15 14 -15 9 0 12 7 9 20 -3
11 -10 20 -15 20 -5 0 -6 5 -3 10 10 16 19 11 33 -18 11 -23 10 -29 -5 -40
-10 -7 -17 -20 -15 -28 2 -8 -2 -14 -8 -14 -18 0 -11 -46 10 -65 20 -18 28
-41 10 -30 -6 3 -7 -1 -4 -9 3 -9 10 -13 15 -10 5 3 9 0 9 -6 0 -6 5 -8 13 -4
9 6 9 4 -1 -8 -9 -11 -10 -23 -2 -42 8 -21 7 -28 -4 -32 -8 -3 -12 -12 -9 -20
3 -8 9 -12 13 -9 10 6 22 -24 14 -36 -8 -13 10 -11 24 3 9 9 12 9 12 0 0 -7
-4 -12 -10 -12 -5 0 -10 -8 -11 -17 0 -11 -3 -13 -6 -5 -9 23 -23 12 -17 -13
4 -15 2 -25 -4 -25 -6 0 -13 15 -17 33 -14 68 -28 106 -38 100 -6 -4 -8 4 -5
21 3 14 2 29 -2 31 -5 3 -6 14 -3 25 3 11 1 20 -5 20 -5 0 -9 15 -8 34 1 22
-3 32 -10 29 -15 -6 -28 14 -14 22 13 8 13 45 0 45 -12 0 -14 36 -2 43 4 2 1
2 -7 0 -10 -2 -12 8 -9 42 2 32 0 44 -9 41 -6 -3 -28 -8 -47 -12 -26 -4 -36
-11 -36 -24 0 -10 6 -21 13 -23 9 -4 9 -8 0 -14 -6 -5 -10 -23 -7 -43 2 -19 4
-45 4 -57 0 -13 4 -23 8 -23 5 0 9 -6 10 -12 5 -47 20 -107 32 -128 8 -14 15
-34 17 -45 8 -85 12 -104 23 -126 13 -24 26 -119 16 -119 -12 0 -34 59 -41
110 -4 30 -11 62 -16 71 -5 9 -10 32 -13 50 -6 45 -17 92 -26 104 -3 6 -8 27
-9 48 -1 21 -8 57 -16 80 -8 23 -15 63 -17 89 -3 48 -18 68 -18 25 0 -13 -7
-32 -15 -43 -15 -18 -15 -18 -9 9 5 21 3 27 -11 27 -15 0 -16 -7 -10 -52 4
-29 12 -64 17 -77 12 -33 1 -39 -13 -7 -7 14 -18 26 -26 26 -7 0 -13 5 -13 11
0 5 5 7 10 4 6 -3 10 -2 10 4 0 5 -4 13 -10 16 -5 3 -7 19 -3 35 5 26 2 30
-16 30 -13 0 -21 -6 -21 -16 0 -11 5 -14 16 -10 14 5 15 4 4 -9 -7 -8 -10 -29
-8 -47 4 -23 0 -36 -14 -48 -15 -12 -17 -21 -9 -48 12 -40 -3 -33 -17 8 -7 18
-7 30 -1 30 5 0 9 5 9 10 0 16 -18 12 -40 -10 -15 -15 -20 -16 -20 -6 0 8 7
21 15 30 17 17 19 26 6 26 -12 0 -55 -75 -70 -122 -7 -20 -18 -39 -26 -42 -9
-3 -12 -12 -8 -22 4 -11 2 -15 -4 -11 -19 12 -65 -110 -64 -171 0 -29 -5 -45
-14 -48 -8 -4 -22 -29 -30 -57 -8 -28 -25 -71 -37 -95 -17 -37 -19 -48 -9 -64
11 -17 10 -18 -7 -9 -18 9 -21 4 -36 -67 -9 -42 -17 -91 -19 -107 -2 -17 -7
-36 -11 -43 -4 -6 -4 -26 -1 -44 10 -62 13 -158 4 -152 -5 3 -9 1 -9 -5 0 -5
9 -13 20 -16 11 -3 20 -11 20 -16 0 -12 -17 -12 -25 1 -15 24 -25 6 -26 -42 0
-29 -4 -79 -8 -110 -5 -43 -4 -59 6 -62 7 -3 13 -10 13 -17 0 -6 -7 -8 -16 -5
-13 5 -15 2 -11 -13 3 -11 1 -21 -3 -23 -4 -2 -10 -25 -14 -52 -5 -33 -4 -46
3 -41 6 3 11 1 11 -4 0 -6 -4 -11 -10 -11 -5 0 -10 -19 -10 -42 l0 -41 21 19
c18 16 36 19 113 19 75 -1 99 -5 139 -25 54 -27 54 -22 31 -180 -28 -197 -35
-295 -30 -410 7 -180 44 -258 143 -304 89 -42 110 -67 112 -130 1 -47 -3 -56
-32 -83 -17 -18 -54 -43 -82 -56 -50 -25 -160 -57 -196 -57 -20 0 -26 -15 -10
-24 11 -7 -12 -117 -40 -187 -11 -30 -27 -94 -35 -142 -8 -48 -24 -111 -35
-140 -15 -37 -21 -73 -20 -124 2 -110 27 -307 55 -423 14 -58 35 -193 46 -300
12 -107 25 -213 30 -235 5 -22 10 -58 10 -81 0 -22 9 -80 20 -130 11 -49 20
-108 20 -130 0 -29 5 -44 16 -48 9 -3 298 -6 644 -6 l628 0 27 72 c14 40 30
91 35 113 5 22 17 81 28 130 10 50 44 164 75 255 69 203 112 356 137 480 58
292 70 334 106 386 19 28 44 77 54 108 19 54 20 61 5 158 -18 121 -19 180 -4
195 6 6 12 39 13 72 1 57 0 60 -24 63 -14 2 -24 9 -22 16 1 6 -3 11 -10 10 -8
-2 -15 15 -18 45 -6 46 2 72 14 45 2 -7 4 -2 3 11 -1 13 4 26 12 29 9 3 11 0
7 -9 -4 -8 -1 -6 7 3 23 29 74 23 91 -9 11 -20 15 -23 16 -11 1 42 149 227
290 363 28 28 69 82 90 120 22 39 57 88 80 110 24 23 40 48 40 62 0 13 11 46
25 73 17 33 25 66 25 100 0 36 4 52 15 56 11 5 15 23 15 73 0 49 6 80 25 119
24 52 24 56 23 315 -1 198 -4 270 -15 297 -7 19 -16 61 -19 95 -3 33 -11 87
-19 120 -8 33 -17 77 -20 97 -3 21 -13 44 -21 53 -9 8 -11 15 -5 15 21 0 16
22 -42 195 -26 80 -57 145 -68 145 -5 0 -23 -15 -39 -32 -16 -18 -30 -28 -30
-22 0 5 14 23 30 39 l30 29 -26 28 c-15 15 -32 25 -37 21 -6 -3 -7 -1 -3 5 7
12 -58 55 -83 55 -9 0 -19 4 -22 10 -11 16 -43 -2 -67 -38 -12 -20 -20 -40
-17 -45 4 -6 3 -15 -1 -21 -4 -8 -9 -7 -15 2 -6 10 -9 6 -9 -13 0 -21 -4 -26
-16 -21 -8 3 -13 12 -10 19 3 8 3 14 0 14 -8 0 -43 -43 -44 -52 0 -4 -15 -31
-33 -60 -18 -29 -38 -66 -45 -81 -7 -17 -17 -25 -24 -21 -7 5 -8 3 -4 -5 8
-12 -19 -51 -35 -51 -9 0 25 64 51 95 9 11 25 40 34 64 10 25 26 57 37 73 11
15 17 32 14 38 -3 5 10 25 29 42 20 18 37 44 39 57 2 13 11 25 20 27 26 3 31
-15 11 -37 -9 -10 -14 -22 -9 -27 4 -4 10 -1 12 6 3 7 13 21 23 30 11 10 16
22 12 27 -12 17 -61 35 -79 29 -13 -4 -14 -3 -5 3 9 7 6 12 -13 21 -31 14 -67
0 -59 -23 4 -9 -7 -30 -25 -50 -28 -32 -31 -34 -31 -13 0 22 39 88 53 88 25 0
-4 22 -76 58 -57 28 -93 54 -116 82 -18 22 -51 53 -74 67 -23 15 -51 34 -62
44 -11 9 -32 19 -46 23 l-26 6 5 -133z m-733 43 c-3 -5 -11 -10 -16 -10 -6 0
-7 5 -4 10 3 6 11 10 16 10 6 0 7 -4 4 -10z m-40 -20 c-3 -5 -14 -10 -23 -10
-15 0 -15 2 -2 10 20 13 33 13 25 0z m121 -27 c-10 -10 -19 5 -10 18 6 11 8
11 12 0 2 -7 1 -15 -2 -18z m-76 -2 c0 -5 -3 -11 -7 -14 -10 -5 12 1 32 9 9 4
15 0 15 -9 0 -22 -13 -28 -49 -21 -26 6 -29 9 -20 25 10 20 29 26 29 10z
m-146 -65 c22 9 20 -5 -6 -33 -29 -31 -33 -29 -34 12 0 26 3 32 11 25 7 -6 20
-8 29 -4z m216 5 c0 -6 -4 -13 -10 -16 -5 -3 -10 1 -10 9 0 9 5 16 10 16 6 0
10 -4 10 -9z m-100 -22 c0 -6 -4 -7 -10 -4 -5 3 -10 11 -10 16 0 6 5 7 10 4 6
-3 10 -11 10 -16z m17 -21 c-3 -8 -6 -5 -6 6 -1 11 2 17 5 13 3 -3 4 -12 1
-19z m-100 -18 c-3 -11 -2 -18 2 -15 14 8 36 -44 24 -56 -8 -8 -19 -2 -41 22
l-29 33 21 18 c27 22 29 22 23 -2z m213 -14 c0 -3 -4 -8 -10 -11 -5 -3 -10 -1
-10 4 0 6 5 11 10 11 6 0 10 -2 10 -4z m958 -16 c-7 -11 -16 -20 -19 -20 -4 0
-9 -9 -12 -20 -5 -20 -27 -29 -27 -11 0 9 57 71 66 71 2 0 -1 -9 -8 -20z
m-1499 -50 c1 -15 7 -32 14 -40 6 -8 2 -6 -10 4 -12 10 -19 24 -16 32 3 8 1
14 -4 14 -8 0 -10 29 -3 50 3 11 19 -37 19 -60z m231 -1 c0 -11 -4 -17 -10
-14 -5 3 -10 13 -10 21 0 8 5 14 10 14 6 0 10 -9 10 -21z m350 -9 c0 -5 -4
-10 -10 -10 -5 0 -10 5 -10 10 0 6 5 10 10 10 6 0 10 -4 10 -10z m574 -4 c-3
-8 -14 -16 -25 -19 -23 -6 -24 -3 -3 17 19 20 35 21 28 2z m-1214 -40 c0 -5
-7 -1 -15 10 -8 10 -14 24 -14 29 0 6 6 1 14 -9 8 -11 15 -24 15 -30z m377 22
c-3 -8 -6 -5 -6 6 -1 11 2 17 5 13 3 -3 4 -12 1 -19z m93 -9 c0 -18 -35 -5
-38 14 -3 16 -1 17 17 7 12 -6 21 -15 21 -21z m1033 2 c-3 -11 -11 -22 -19
-25 -17 -6 -17 -1 -4 25 14 25 30 25 23 0z m-1087 -27 c-3 -7 2 -15 10 -18 9
-3 14 -12 11 -19 -2 -6 -1 -19 4 -28 6 -11 2 -22 -10 -33 -18 -16 -19 -14 -26
36 -5 41 -9 48 -15 33 -8 -19 -8 -19 -15 -1 -6 13 -3 21 8 28 10 5 14 15 10
26 -6 15 -5 15 11 3 9 -8 15 -20 12 -27z m234 5 c0 -5 -4 -9 -10 -9 -5 0 -10
7 -10 16 0 8 5 12 10 9 6 -3 10 -10 10 -16z m-70 7 c0 -3 -4 -8 -10 -11 -5 -3
-10 -1 -10 4 0 6 5 11 10 11 6 0 10 -2 10 -4z m1070 0 c0 -11 -19 -15 -25 -6
-3 5 1 10 9 10 9 0 16 -2 16 -4z m228 -13 c-9 -10 -13 -24 -10 -32 3 -8 0 -11
-7 -7 -17 11 -13 34 7 45 25 15 27 13 10 -6z m-342 -23 c-1 -16 -4 -30 -8 -30
-5 0 -8 -7 -8 -15 0 -8 -4 -15 -10 -15 -5 0 -10 -8 -11 -17 0 -10 -3 -13 -5
-6 -3 7 0 22 7 35 8 13 12 27 11 31 -2 8 16 47 22 47 2 0 3 -13 2 -30z m-366
10 c0 -5 -4 -10 -10 -10 -5 0 -10 5 -10 10 0 6 5 10 10 10 6 0 10 -4 10 -10z
m634 -6 c3 -8 2 -12 -4 -9 -6 3 -10 10 -10 16 0 14 7 11 14 -7z m-1183 -7 c-1
-12 -15 -9 -19 4 -3 6 1 10 8 8 6 -3 11 -8 11 -12z m824 -25 c-10 -10 -16 -12
-13 -7 3 6 8 19 13 30 5 14 9 16 12 7 3 -8 -3 -21 -12 -30z m331 -7 c-4 -14
-11 -25 -16 -25 -13 0 -13 16 1 42 14 26 23 16 15 -17z m-156 13 c0 -4 -6 -8
-14 -8 -8 0 -17 4 -20 8 -2 4 4 8 15 8 10 0 19 -4 19 -8z m230 -6 c0 -4 -6
-14 -12 -20 -10 -10 -10 -15 1 -21 8 -6 9 -11 3 -15 -6 -3 -13 3 -17 14 -4 11
-11 17 -17 14 -6 -4 -6 2 1 15 11 20 41 30 41 13z m-1260 -6 c0 -2 -8 -10 -17
-17 -16 -13 -17 -12 -4 4 13 16 21 21 21 13z m-633 -28 c-3 -8 -6 -5 -6 6 -1
11 2 17 5 13 3 -3 4 -12 1 -19z m152 -21 c1 -5 -3 -5 -9 -2 -5 3 -10 16 -9 28
0 21 1 21 9 2 5 -11 9 -24 9 -28z m1781 29 c0 -2 -7 -9 -15 -16 -12 -10 -15
-10 -15 4 0 9 7 16 15 16 8 0 15 -2 15 -4z m-200 -15 c0 -11 -59 -101 -65
-101 -8 0 50 109 58 110 4 0 7 -4 7 -9z m29 -45 c-12 -20 -24 -35 -26 -32 -3
3 5 21 17 41 29 47 37 39 9 -9z m177 18 c-11 -7 -22 -12 -25 -9 -2 3 4 12 15
19 10 8 21 12 24 9 3 -2 -4 -11 -14 -19z m-1394 -6 c-7 -7 -12 -8 -12 -2 0 14
12 26 19 19 2 -3 -1 -11 -7 -17z m43 -15 c-5 -21 -4 -24 7 -16 8 7 22 7 38 1
20 -7 22 -11 10 -18 -8 -5 -25 -10 -37 -10 -26 0 -42 -20 -16 -21 29 -1 77
-10 82 -15 2 -2 -11 -4 -30 -5 l-34 -1 40 -13 c38 -12 36 -13 -45 -8 -47 3
-91 6 -98 9 -19 5 18 44 43 45 19 0 18 1 -2 9 -30 12 -29 23 2 40 14 7 25 17
25 22 0 4 5 8 11 8 7 0 9 -10 4 -27z m127 -5 c-7 -7 -12 -8 -12 -2 0 14 12 26
19 19 2 -3 -1 -11 -7 -17z m170 0 c-7 -7 -12 -8 -12 -2 0 14 12 26 19 19 2 -3
-1 -11 -7 -17z m943 12 c-3 -5 -12 -10 -18 -10 -7 0 -6 4 3 10 19 12 23 12 15
0z m-1933 -27 c-5 -25 -6 -25 -13 -8 -11 29 -10 35 5 35 9 0 12 -8 8 -27z
m593 17 c3 -6 -4 -14 -17 -19 -29 -11 -35 -6 -18 14 14 17 26 19 35 5z m1106
-17 c-12 -20 -14 -14 -5 12 4 9 9 14 11 11 3 -2 0 -13 -6 -23z m-1171 7 c0 -5
-4 -10 -10 -10 -5 0 -10 5 -10 10 0 6 5 10 10 10 6 0 10 -4 10 -10z m1075 -9
c-3 -6 -11 -11 -17 -11 -6 0 -6 6 2 15 14 17 26 13 15 -4z m-1704 -18 c-12
-20 -14 -14 -5 12 4 9 9 14 11 11 3 -2 0 -13 -6 -23z m2179 22 c0 -3 -25 -37
-55 -76 -30 -39 -58 -82 -61 -95 -3 -12 -16 -30 -29 -38 -21 -14 -23 -14 -18
4 3 11 9 20 14 20 5 0 17 17 27 37 9 21 24 45 32 55 8 9 29 35 45 57 27 36 45
50 45 36z m-83 -20 c0 -17 -13 -20 -21 -6 -4 5 0 12 6 14 7 3 13 6 14 6 0 1 1
-6 1 -14z m-1424 -11 c11 -11 -16 -54 -35 -54 -22 0 -24 23 -2 44 16 17 27 20
37 10z m1069 -16 c-7 -7 -12 -8 -12 -2 0 14 12 26 19 19 2 -3 -1 -11 -7 -17z
m28 -24 c-18 -21 -24 -10 -8 15 7 12 14 17 16 11 2 -6 -2 -17 -8 -26z m91 3
c-10 -9 -11 -8 -5 6 3 10 9 15 12 12 3 -3 0 -11 -7 -18z m358 -4 c-48 -53 -61
-65 -65 -60 -9 8 8 36 26 42 9 3 25 14 35 25 10 11 20 20 23 20 3 0 -5 -12
-19 -27z m-1970 -57 c1 -16 -2 -26 -6 -22 -4 3 -8 28 -9 54 -1 35 0 41 6 22 4
-14 8 -38 9 -54z m1291 64 l25 -8 -25 -1 c-14 0 -32 4 -40 9 -13 9 -13 10 0 9
8 -1 26 -5 40 -9z m-90 -15 c11 3 32 -1 47 -10 l28 -15 -40 5 c-92 13 -105 16
-100 26 4 5 14 5 26 -2 11 -5 28 -7 39 -4z m257 -12 c-3 -2 -16 -1 -29 3 l-23
8 25 6 c23 6 39 -4 27 -17z m-725 -5 c-7 -7 -12 -8 -12 -2 0 14 12 26 19 19 2
-3 -1 -11 -7 -17z m-592 2 c0 -5 -2 -10 -4 -10 -3 0 -8 5 -11 10 -3 6 -1 10 4
10 6 0 11 -4 11 -10z m230 -27 c0 -7 -9 -13 -20 -13 -22 0 -29 35 -7 43 13 4
27 -11 27 -30z m1430 33 c0 -2 -8 -10 -17 -17 -16 -13 -17 -12 -4 4 13 16 21
21 21 13z m-1686 -49 c4 -17 3 -26 -2 -23 -6 3 -12 19 -14 36 -6 37 7 27 16
-13z m953 37 c-3 -3 -12 -4 -19 -1 -8 3 -5 6 6 6 11 1 17 -2 13 -5z m73 -4
c21 -7 19 -8 -17 -9 -24 -1 -43 4 -43 9 0 12 24 12 60 0z m185 0 c3 -6 -1 -7
-9 -4 -18 7 -21 14 -7 14 6 0 13 -4 16 -10z m65 -14 c0 -8 12 -19 28 -24 26
-10 26 -10 -13 -11 -22 0 -58 4 -80 9 -22 5 -61 10 -87 12 -27 2 -48 7 -48 12
0 5 33 6 74 2 48 -4 77 -3 81 4 9 15 45 12 45 -4z m-860 -16 c-6 -11 -16 -20
-22 -20 -6 0 -3 9 7 20 10 11 20 20 22 20 2 0 -1 -9 -7 -20z m283 0 c10 -9
-13 -61 -24 -55 -4 3 -18 1 -32 -4 -22 -8 -24 -7 -20 10 3 10 0 19 -6 19 -18
0 -12 38 7 43 20 5 63 -2 75 -13z m1272 -10 c-3 -5 -11 -10 -16 -10 -6 0 -7 5
-4 10 3 6 11 10 16 10 6 0 7 -4 4 -10z m-1742 -6 c42 -8 51 -24 10 -20 -16 2
-38 4 -50 5 -13 0 -23 6 -23 11 0 12 11 12 63 4z m1147 -4 c0 -5 -4 -10 -9
-10 -6 0 -13 5 -16 10 -3 6 1 10 9 10 9 0 16 -4 16 -10z m-1000 -9 c9 -1 11
-4 4 -11 -10 -10 -54 -2 -54 10 0 5 8 7 18 5 9 -2 24 -4 32 -4z m795 -1 c3 -5
1 -10 -4 -10 -6 0 -11 5 -11 10 0 6 2 10 4 10 3 0 8 -4 11 -10z m475 -15 c-16
-19 -30 -19 -30 1 0 8 4 13 9 9 5 -3 13 0 16 6 4 5 9 8 12 5 3 -3 0 -12 -7
-21z m-1137 1 c16 -3 32 -8 35 -12 4 -4 -15 -4 -42 0 -27 3 -62 6 -77 6 -16 0
-29 4 -29 9 0 9 38 8 113 -3z m-351 -20 c2 -13 -3 -19 -19 -21 -20 -1 -20 0
-6 22 17 26 20 26 25 -1z m878 14 c0 -5 -7 -7 -15 -4 -8 4 -15 8 -15 10 0 2 7
4 15 4 8 0 15 -4 15 -10z m227 4 c-3 -3 -12 -4 -19 -1 -8 3 -5 6 6 6 11 1 17
-2 13 -5z m-671 -31 c-10 -10 -19 5 -10 18 6 11 8 11 12 0 2 -7 1 -15 -2 -18z
m914 19 c0 -5 -7 -17 -16 -28 -8 -10 -14 -14 -11 -9 2 6 7 18 10 28 7 17 17
23 17 9z m-563 -8 c-3 -3 -12 -4 -19 -1 -8 3 -5 6 6 6 11 1 17 -2 13 -5z m108
-14 c-27 -12 -35 -12 -35 0 0 6 12 10 28 9 24 0 25 -1 7 -9z m222 4 c-3 -3
-12 -4 -19 -1 -8 3 -5 6 6 6 11 1 17 -2 13 -5z m-612 -14 c-3 -5 -13 -10 -21
-10 -8 0 -12 5 -9 10 3 6 13 10 21 10 8 0 12 -4 9 -10z m660 0 c-3 -5 -2 -10
4 -10 5 0 17 -3 25 -6 12 -5 15 -2 10 10 -4 12 0 16 16 16 19 0 21 -4 16 -27
-4 -17 -3 -23 2 -15 7 10 11 10 22 -3 11 -13 10 -15 -4 -9 -11 4 -16 1 -16
-10 0 -15 33 -21 98 -19 6 1 12 -4 12 -9 0 -7 -34 -8 -97 -3 -107 8 -115 8
-248 26 -95 12 -120 15 -172 17 -62 3 -33 18 32 18 36 -1 65 -4 65 -7 0 -3 10
-5 22 -4 12 1 43 -2 68 -7 83 -16 104 -17 112 -5 6 9 8 9 8 0 0 -9 16 -13 46
-13 32 0 44 4 41 13 -2 6 -12 11 -23 10 -10 -1 -26 3 -36 8 -19 10 -25 39 -7
39 5 0 7 -4 4 -10z m-888 -6 c-3 -3 -12 -4 -19 -1 -8 3 -5 6 6 6 11 1 17 -2
13 -5z m758 -4 c-3 -5 -10 -10 -16 -10 -5 0 -9 5 -9 10 0 6 7 10 16 10 8 0 12
-4 9 -10z m40 0 c3 -5 1 -10 -4 -10 -6 0 -11 5 -11 10 0 6 2 10 4 10 3 0 8 -4
11 -10z m415 -9 c0 -6 -4 -13 -10 -16 -5 -3 -10 1 -10 9 0 9 5 16 10 16 6 0
10 -4 10 -9z m-50 -16 c-7 -9 -15 -13 -17 -11 -7 7 7 26 19 26 6 0 6 -6 -2
-15z m200 -5 c0 -5 -5 -10 -11 -10 -5 0 -7 5 -4 10 3 6 8 10 11 10 2 0 4 -4 4
-10z m175 0 c-3 -5 -11 -10 -16 -10 -6 0 -7 5 -4 10 3 6 11 10 16 10 6 0 7 -4
4 -10z m-2210 -10 c3 -5 1 -10 -4 -10 -6 0 -11 5 -11 10 0 6 2 10 4 10 3 0 8
-4 11 -10z m445 -10 c0 -5 -2 -10 -4 -10 -3 0 -8 5 -11 10 -3 6 -1 10 4 10 6
0 11 -4 11 -10z m195 0 c3 -5 1 -10 -4 -10 -6 0 -11 5 -11 10 0 6 2 10 4 10 3
0 8 -4 11 -10z m1370 0 c3 -5 1 -10 -4 -10 -6 0 -11 5 -11 10 0 6 2 10 4 10 3
0 8 -4 11 -10z m-1715 -14 c0 -3 -4 -8 -10 -11 -5 -3 -10 -1 -10 4 0 6 5 11
10 11 6 0 10 -2 10 -4z m138 -21 c14 -14 -10 -14 -39 0 l-34 15 34 -5 c19 -3
37 -7 39 -10z m912 5 c12 -8 12 -10 -5 -9 -11 0 -29 4 -40 9 -18 8 -18 9 5 9
14 0 32 -4 40 -9z m-1083 -22 c-3 -8 -6 -5 -6 6 -1 11 2 17 5 13 3 -3 4 -12 1
-19z m273 12 c0 -5 -9 -10 -21 -10 -11 0 -17 5 -14 10 3 6 13 10 21 10 8 0 14
-4 14 -10z m240 0 c0 -5 -4 -10 -9 -10 -6 0 -13 5 -16 10 -3 6 1 10 9 10 9 0
16 -4 16 -10z m1054 -5 c-4 -8 -8 -15 -10 -15 -2 0 -4 7 -4 15 0 8 4 15 10 15
5 0 7 -7 4 -15z m-299 -5 l30 -8 -30 0 c-16 0 -39 3 -50 8 l-20 9 20 -1 c11 0
34 -4 50 -8z m-848 -6 c-3 -3 -12 -4 -19 -1 -8 3 -5 6 6 6 11 1 17 -2 13 -5z
m183 3 c0 -2 -15 -16 -32 -33 l-33 -29 29 33 c28 30 36 37 36 29z m100 -4 c0
-15 -37 -63 -43 -57 -3 3 -19 -1 -36 -9 -29 -15 -30 -14 -21 3 7 13 7 21 -1
26 -19 11 32 44 69 44 17 0 32 -3 32 -7z m695 -3 c4 -6 -7 -10 -27 -9 -31 1
-32 1 -8 9 14 4 26 8 27 9 1 1 5 -3 8 -9z m-417 -7 c-10 -2 -26 -2 -35 0 -10
3 -2 5 17 5 19 0 27 -2 18 -5z m745 -18 c-18 -25 -33 -32 -33 -16 0 7 37 39
48 40 2 1 -5 -10 -15 -24z m233 18 c-10 -11 -37 -12 -30 -2 3 5 12 9 21 9 9 0
13 -3 9 -7z m-2021 -12 c3 -5 1 -12 -5 -16 -5 -3 -10 1 -10 9 0 18 6 21 15 7z
m55 -1 c0 -5 -4 -10 -10 -10 -5 0 -10 5 -10 10 0 6 5 10 10 10 6 0 10 -4 10
-10z m1557 -6 c-3 -3 -12 -4 -19 -1 -8 3 -5 6 6 6 11 1 17 -2 13 -5z m-1697
-14 c0 -5 -2 -10 -4 -10 -3 0 -8 5 -11 10 -3 6 -1 10 4 10 6 0 11 -4 11 -10z
m721 -33 c-8 -8 -11 -7 -11 4 0 20 13 34 18 19 3 -7 -1 -17 -7 -23z m679 23
c0 -5 -5 -10 -11 -10 -5 0 -7 5 -4 10 3 6 8 10 11 10 2 0 4 -4 4 -10z m338 -2
c-2 -6 -10 -14 -16 -16 -7 -2 -10 2 -6 12 7 18 28 22 22 4z m352 1 c0 -6 9 -8
22 -3 20 6 21 5 10 -8 -7 -9 -21 -18 -31 -21 -14 -3 -18 1 -18 19 0 13 3 24 8
24 5 0 9 -5 9 -11z m-1193 -34 c-18 -13 -24 -30 -7 -20 15 9 12 -11 -4 -24
-11 -9 -15 -8 -20 5 -3 9 -4 20 0 25 3 5 0 9 -5 9 -6 0 -11 -8 -11 -19 0 -10
-9 -21 -21 -24 -24 -7 -22 0 15 46 25 31 32 35 49 25 19 -10 19 -12 4 -23z
m533 -15 c0 -10 -49 0 -57 13 -3 5 -1 7 5 3 6 -3 14 -2 17 4 7 11 35 -5 35
-20z m-630 -5 c-7 -18 -5 -28 7 -40 12 -13 13 -21 5 -38 -8 -16 -11 -18 -11
-6 -1 9 -10 19 -21 22 -16 4 -20 14 -20 46 0 37 2 41 25 41 22 0 24 -3 15 -25z
m548 7 c2 -7 -3 -12 -12 -12 -9 0 -16 7 -16 16 0 17 22 14 28 -4z m132 4 c-14
-8 -29 -11 -35 -8 -5 3 1 9 15 13 40 11 47 9 20 -5z m-1766 -39 c16 -13 26
-29 22 -35 -4 -7 -21 3 -46 28 -22 22 -40 42 -40 45 0 8 30 -10 64 -38z m1036
23 c0 -5 -5 -10 -11 -10 -5 0 -7 5 -4 10 3 6 8 10 11 10 2 0 4 -4 4 -10z
m1338 -9 c-7 -11 -16 -17 -21 -14 -4 3 0 11 10 19 24 18 25 17 11 -5z m-448
-1 c0 -5 -5 -10 -11 -10 -5 0 -7 5 -4 10 3 6 8 10 11 10 2 0 4 -4 4 -10z
m-165 -10 c3 -5 1 -10 -4 -10 -6 0 -11 5 -11 10 0 6 2 10 4 10 3 0 8 -4 11
-10z m-768 -42 c-3 -7 -5 -2 -5 12 0 14 2 19 5 13 2 -7 2 -19 0 -25z m903 22
c0 -5 -2 -10 -4 -10 -3 0 -8 5 -11 10 -3 6 -1 10 4 10 6 0 11 -4 11 -10z m54
-4 c-3 -8 -1 -17 5 -21 25 -15 6 -22 -61 -22 -40 1 -54 2 -30 4 23 2 43 8 43
14 1 5 3 14 4 19 1 6 3 12 4 15 0 3 10 5 21 5 12 0 17 -5 14 -14z m-818 -23
c-10 -10 -19 5 -10 18 6 11 8 11 12 0 2 -7 1 -15 -2 -18z m359 17 c3 -5 -3
-10 -14 -10 -11 0 -23 5 -26 10 -3 6 3 10 14 10 11 0 23 -4 26 -10z m120 -10
c3 -5 -1 -10 -9 -10 -9 0 -16 5 -16 10 0 6 4 10 9 10 6 0 13 -4 16 -10z m45
-6 c0 -2 -7 -4 -15 -4 -8 0 -15 4 -15 10 0 5 7 7 15 4 8 -4 15 -8 15 -10z
m-1190 -4 c0 -13 -20 -13 -40 0 -12 8 -9 10 13 10 15 0 27 -4 27 -10z m720
-24 c0 -20 -8 -43 -21 -57 -11 -13 -18 -18 -14 -11 3 6 1 12 -6 12 -7 0 -2 11
11 24 12 14 20 32 17 40 -5 12 0 26 10 26 2 0 3 -15 3 -34z m-1105 -1 c17 -13
26 -24 20 -25 -5 0 -23 11 -40 25 -16 13 -25 24 -20 25 6 0 24 -11 40 -25z
m830 15 c3 -5 1 -10 -4 -10 -6 0 -11 5 -11 10 0 6 2 10 4 10 3 0 8 -4 11 -10z
m165 -21 c0 -17 -4 -28 -10 -24 -5 3 -10 17 -10 31 0 13 5 24 10 24 6 0 10
-14 10 -31z m570 1 c0 -5 -9 -10 -21 -10 -11 0 -17 5 -14 10 3 6 13 10 21 10
8 0 14 -4 14 -10z m56 -5 c4 -10 16 -13 37 -10 26 4 27 3 8 -3 -13 -4 -27 -15
-30 -23 -4 -12 -12 -14 -26 -8 -17 6 -17 8 -2 8 28 1 20 21 -9 21 -22 0 -25 2
-14 15 16 19 29 19 36 0z m-939 -1 c-3 -3 -12 -4 -19 -1 -8 3 -5 6 6 6 11 1
17 -2 13 -5z m113 -4 c0 -5 -4 -10 -10 -10 -5 0 -10 5 -10 10 0 6 5 10 10 10
6 0 10 -4 10 -10z m1052 -10 c27 0 -4 -12 -41 -16 -53 -6 -79 9 -31 17 19 3
41 5 48 3 8 -2 19 -4 24 -4z m33 1 c3 -5 1 -12 -5 -16 -5 -3 -10 1 -10 9 0 18
6 21 15 7z m-899 -29 c-10 -2 -22 0 -28 6 -6 6 0 7 19 4 21 -5 23 -7 9 -10z
m64 -2 c0 -5 -7 -10 -15 -10 -8 0 -15 5 -15 10 0 6 7 10 15 10 8 0 15 -4 15
-10z m773 -26 c-6 -15 -44 -14 -60 1 -8 9 -1 12 27 11 25 0 36 -4 33 -12z
m-1243 -9 c7 -8 9 -15 6 -15 -4 0 -14 7 -22 15 -9 8 -11 15 -6 15 5 0 15 -7
22 -15z m158 -16 c28 0 32 -2 18 -8 -24 -9 -66 -2 -66 11 0 5 -6 6 -12 2 -8
-5 -7 0 2 11 13 16 15 16 18 2 3 -12 14 -17 40 -18z m107 -4 c0 -27 -12 -34
-21 -11 -3 8 -12 12 -20 9 -8 -3 -14 -1 -14 4 0 15 12 23 34 23 16 0 21 -6 21
-25z m712 -27 c-3 -7 -5 -2 -5 12 0 14 2 19 5 13 2 -7 2 -19 0 -25z m-947 2
c0 -5 -2 -10 -4 -10 -3 0 -8 5 -11 10 -3 6 -1 10 4 10 6 0 11 -4 11 -10z
m-797 -16 c-8 -21 -33 -25 -33 -6 0 11 8 18 19 18 11 0 17 -6 14 -12z m1987 6
c0 -5 -5 -10 -11 -10 -5 0 -7 5 -4 10 3 6 8 10 11 10 2 0 4 -4 4 -10z m480 5
c0 -5 -67 -35 -77 -35 -3 0 0 6 7 14 10 13 21 17 63 25 4 0 7 -1 7 -4z m-1740
-15 c0 -5 -5 -10 -11 -10 -5 0 -7 5 -4 10 3 6 8 10 11 10 2 0 4 -4 4 -10z
m267 4 c-3 -3 -12 -4 -19 -1 -8 3 -5 6 6 6 11 1 17 -2 13 -5z m-477 -19 c10
-12 10 -15 -3 -15 -30 0 -77 13 -77 21 0 15 67 10 80 -6z m361 -3 c-7 -2 -18
1 -23 6 -8 8 -4 9 13 5 13 -4 18 -8 10 -11z m312 11 c-7 -2 -19 -2 -25 0 -7 3
-2 5 12 5 14 0 19 -2 13 -5z m110 -10 c-7 -2 -21 -2 -30 0 -10 3 -4 5 12 5 17
0 24 -2 18 -5z m236 -20 c3 -2 -8 -2 -22 -1 -27 2 -33 9 -20 21 3 4 13 1 22
-5 9 -7 18 -14 20 -15z m-69 7 c0 -6 -11 -8 -27 -4 -40 10 -41 14 -5 14 18 0
32 -5 32 -10z m227 -10 c-1 -11 -7 -20 -14 -20 -11 0 -11 4 -1 20 7 11 14 20
15 20 1 0 1 -9 0 -20z m-1102 0 c-27 -12 -35 -12 -35 0 0 6 12 10 28 9 24 0
25 -1 7 -9z m1385 -6 c0 -16 -32 -23 -71 -15 -53 11 -44 26 16 26 36 1 55 -3
55 -11z m-330 2 c0 -2 -7 -6 -15 -10 -8 -3 -15 -1 -15 4 0 6 7 10 15 10 8 0
15 -2 15 -4z m-1560 -22 c0 -2 -7 -4 -15 -4 -8 0 -15 4 -15 10 0 5 7 7 15 4 8
-4 15 -8 15 -10z m2245 -4 c-3 -5 -14 -10 -23 -10 -15 0 -15 2 -2 10 20 13 33
13 25 0z m-440 -10 c-3 -5 -12 -10 -18 -10 -7 0 -6 4 3 10 19 12 23 12 15 0z
m599 -5 c-4 -8 -10 -15 -15 -15 -4 0 -6 7 -3 15 4 8 10 15 15 15 4 0 6 -7 3
-15z m-1944 -7 c0 -12 -38 -10 -45 2 -4 6 5 9 19 8 15 -1 26 -6 26 -10z m1058
-13 c-3 -3 -9 2 -12 12 -6 14 -5 15 5 6 7 -7 10 -15 7 -18z m349 19 c-3 -3
-12 -4 -19 -1 -8 3 -5 6 6 6 11 1 17 -2 13 -5z m-707 -54 c0 -5 -2 -10 -4 -10
-3 0 -8 5 -11 10 -3 6 -1 10 4 10 6 0 11 -4 11 -10z m-212 -20 c-7 -10 -14
-17 -17 -15 -4 4 18 35 25 35 2 0 -1 -9 -8 -20z m-1013 -50 c3 -5 2 -10 -4
-10 -5 0 -13 5 -16 10 -3 6 -11 10 -16 10 -6 0 -7 -4 -4 -10 3 -5 2 -10 -2
-10 -11 0 -33 36 -26 44 7 6 59 -19 68 -34z m535 25 c31 -12 32 -14 10 -14
-14 0 -36 6 -50 14 -31 18 -7 18 40 0z m1280 -15 c0 -5 -2 -10 -4 -10 -3 0 -8
5 -11 10 -3 6 -1 10 4 10 6 0 11 -4 11 -10z m-1177 -7 c-7 -2 -19 -2 -25 0 -7
3 -2 5 12 5 14 0 19 -2 13 -5z m812 -3 c3 -6 -1 -7 -9 -4 -18 7 -21 14 -7 14
6 0 13 -4 16 -10z m-967 -25 c-3 -3 -9 2 -12 12 -6 14 -5 15 5 6 7 -7 10 -15
7 -18z m255 18 c-7 -2 -19 -2 -25 0 -7 3 -2 5 12 5 14 0 19 -2 13 -5z m94 -9
c-3 -3 -12 -4 -19 -1 -8 3 -5 6 6 6 11 1 17 -2 13 -5z m981 -11 c-10 -2 -26
-2 -35 0 -10 3 -2 5 17 5 19 0 27 -2 18 -5z m-1298 -23 c0 -5 -4 -10 -10 -10
-5 0 -10 5 -10 10 0 6 5 10 10 10 6 0 10 -4 10 -10z m750 -80 c0 -5 -4 -10
-10 -10 -5 0 -10 5 -10 10 0 6 5 10 10 10 6 0 10 -4 10 -10z m-760 -10 c8 -5
11 -10 5 -10 -5 0 -17 5 -25 10 -8 5 -10 10 -5 10 6 0 17 -5 25 -10z m106 -27
c-10 -10 -19 5 -10 18 6 11 8 11 12 0 2 -7 1 -15 -2 -18z m724 3 c0 -11 -19
-15 -25 -6 -3 5 1 10 9 10 9 0 16 -2 16 -4z m-680 -37 c0 -4 -7 -6 -15 -3 -8
4 -15 10 -15 15 0 4 7 6 15 3 8 -4 15 -10 15 -15z m-720 -3 c0 -2 -8 -10 -17
-17 -16 -13 -17 -12 -4 4 13 16 21 21 21 13z m460 -27 c0 -5 -4 -9 -10 -9 -5
0 -10 7 -10 16 0 8 5 12 10 9 6 -3 10 -10 10 -16z m142 14 c-10 -4 -10 -8 -1
-19 14 -17 9 -17 -28 -3 -30 11 -21 24 19 26 13 0 17 -1 10 -4z m44 -19 c-5
-13 -1 -16 34 -18 8 -1 15 -10 15 -21 0 -16 8 -21 35 -23 23 -2 30 0 22 6 -10
7 -7 11 13 14 19 4 23 2 16 -5 -19 -19 -12 -25 37 -30 26 -3 72 -10 102 -16
52 -11 94 -18 150 -26 14 -1 49 -6 78 -10 71 -10 66 -25 -5 -18 -32 2 -72 6
-89 7 -17 2 -36 6 -41 9 -6 4 -28 9 -49 12 -63 10 -87 14 -116 20 -69 13 -85
16 -113 19 -85 12 -134 26 -87 26 29 0 28 18 0 25 -15 4 -23 14 -24 30 -1 17
2 22 13 18 8 -3 12 -12 9 -19z m1502 -3 c37 -32 35 -48 -9 -73 -36 -21 -35
-25 22 -140 22 -43 39 -84 39 -92 0 -9 -11 -41 -25 -72 -31 -69 -31 -83 -4
-58 42 38 162 13 236 -50 18 -15 35 -35 38 -45 6 -19 -22 -69 -107 -195 -27
-38 -48 -76 -48 -83 0 -7 -7 -13 -15 -13 -8 0 -15 -3 -15 -8 0 -4 -26 -34 -57
-68 -83 -86 -114 -123 -147 -172 -27 -40 -31 -42 -75 -40 -36 1 -53 8 -81 34
-19 18 -46 41 -59 51 l-24 20 45 42 c44 39 116 138 168 226 13 22 17 34 10 28
-29 -26 -32 -11 -26 110 7 158 7 154 18 207 11 54 58 329 65 383 3 20 8 37 12
37 3 -1 21 -13 39 -29z m-1038 9 c0 -5 -2 -10 -4 -10 -3 0 -8 5 -11 10 -3 6
-1 10 4 10 6 0 11 -4 11 -10z m637 -4 c10 -10 -61 -7 -77 3 -9 7 0 9 29 6 23
-1 45 -5 48 -9z m-838 -19 c10 3 22 0 25 -5 7 -12 -90 -9 -102 3 -4 4 3 5 15
2 13 -3 26 0 30 6 5 8 8 8 10 0 2 -6 12 -9 22 -6z m162 -13 c5 -3 9 -9 9 -14
0 -7 -119 15 -128 25 -6 6 109 -5 119 -11z m584 6 c3 -5 1 -10 -4 -10 -6 0
-11 5 -11 10 0 6 2 10 4 10 3 0 8 -4 11 -10z m769 -5 c11 -8 18 -17 15 -19 -2
-3 -15 4 -29 14 -14 11 -20 20 -15 19 6 0 19 -6 29 -14z m-1914 -5 c0 -5 -2
-10 -4 -10 -3 0 -8 5 -11 10 -3 6 -1 10 4 10 6 0 11 -4 11 -10z m310 -10 c0
-5 -5 -10 -11 -10 -5 0 -7 5 -4 10 3 6 8 10 11 10 2 0 4 -4 4 -10z m215 -12
c17 -7 16 -8 -5 -3 -14 2 -35 5 -47 5 -13 0 -23 5 -23 10 0 11 38 5 75 -12z
m-80 -9 c33 -6 70 -12 83 -14 12 -2 55 -9 94 -15 53 -9 73 -10 76 -1 4 13 29
15 34 2 2 -5 16 -13 32 -17 19 -4 27 -3 23 3 -4 6 0 13 8 17 8 3 17 1 20 -4 3
-5 13 -6 22 -3 12 5 15 2 10 -10 -4 -11 2 -17 24 -22 55 -12 23 -15 -52 -5
-41 5 -96 12 -124 15 -42 5 -234 34 -325 49 -14 3 -32 5 -40 5 -13 1 -13 2 0
11 8 5 24 7 35 5 11 -3 47 -9 80 -16z m542 15 c-3 -3 -12 -4 -19 -1 -8 3 -5 6
6 6 11 1 17 -2 13 -5z m163 -4 c0 -5 -7 -10 -16 -10 -8 0 -12 5 -9 10 3 6 10
10 16 10 5 0 9 -4 9 -10z m65 0 c4 -6 -6 -10 -22 -10 -22 0 -25 2 -13 10 19
12 27 12 35 0z m-1348 -22 c-3 -8 -6 -5 -6 6 -1 11 2 17 5 13 3 -3 4 -12 1
-19z m914 -7 c-7 -11 -17 -18 -26 -15 -17 7 -9 32 13 37 23 5 25 2 13 -22z
m144 0 c-3 -6 -11 -11 -16 -11 -5 0 -4 6 3 14 14 16 24 13 13 -3z m-1410 -1
c3 -5 -1 -10 -10 -10 -9 0 -13 5 -10 10 3 6 8 10 10 10 2 0 7 -4 10 -10z m-35
-9 c0 -5 -9 -11 -20 -14 -22 -6 -28 8 -7 16 19 8 27 8 27 -2z m368 -81 c2 -36
8 -70 14 -77 8 -10 7 -13 -4 -13 -13 0 -27 -46 -44 -145 -4 -22 -11 -49 -17
-60 -10 -18 -10 -19 -17 -1 -3 10 -3 48 1 84 4 37 13 111 18 166 12 105 16
119 34 113 7 -2 13 -30 15 -67z m355 63 c-7 -2 -21 -2 -30 0 -10 3 -4 5 12 5
17 0 24 -2 18 -5z m884 0 c-4 -3 -2 -12 4 -20 9 -10 8 -13 -4 -13 -8 0 -17 9
-20 20 -3 14 0 20 11 20 8 0 12 -3 9 -7z m-1102 -13 c3 -5 -1 -10 -9 -10 -9 0
-16 5 -16 10 0 6 4 10 9 10 6 0 13 -4 16 -10z m338 -9 c8 -8 6 -11 -7 -11 -11
0 -15 -4 -10 -12 6 -9 3 -9 -9 0 -9 8 -21 11 -26 7 -7 -4 -8 1 -4 11 5 13 3
16 -10 11 -9 -3 -17 -2 -17 4 0 13 68 5 83 -10z m67 -1 c0 -5 -10 -10 -22 -10
-23 -1 -23 -1 -3 -17 18 -14 18 -15 2 -9 -10 3 -25 6 -33 6 -12 0 -12 4 -2 20
13 20 58 28 58 10z m88 -17 c49 -6 58 -22 10 -17 -18 1 -45 3 -60 3 -19 1 -28
6 -28 17 0 11 5 14 18 9 9 -4 36 -10 60 -12z m594 -14 c-31 -6 -52 -1 -52 13
0 5 10 6 21 3 14 -5 19 -3 15 3 -3 6 4 5 19 -1 l25 -12 -28 -6z m-967 11 c3
-5 1 -10 -4 -10 -6 0 -11 5 -11 10 0 6 2 10 4 10 3 0 8 -4 11 -10z m660 0 c-3
-5 -19 -10 -36 -10 -16 0 -29 5 -29 10 0 6 16 10 36 10 21 0 33 -4 29 -10z
m-116 -20 c33 0 72 -5 88 -12 l28 -11 -35 -7 c-20 -3 -40 -9 -46 -13 -6 -3
-32 -2 -60 3 -49 9 -49 9 -6 7 23 -2 42 1 42 5 0 5 -12 9 -27 9 -70 3 -79 5
-89 14 -17 15 5 26 27 14 10 -5 45 -9 78 -9z m158 14 c-3 -3 -12 -4 -19 -1 -8
3 -5 6 6 6 11 1 17 -2 13 -5z m353 -4 c0 -5 -7 -10 -16 -10 -8 0 -12 5 -9 10
3 6 10 10 16 10 5 0 9 -4 9 -10z m-894 -20 c8 0 14 -4 14 -9 0 -6 -12 -6 -30
-1 -32 9 -33 9 -52 11 -7 1 1 4 17 8 17 4 32 3 33 -1 2 -4 10 -8 18 -8z m224
-2 c0 -5 -2 -8 -5 -8 -3 0 -12 0 -20 0 -8 0 -15 4 -15 9 0 4 9 8 20 7 11 0 20
-4 20 -8z m510 2 c0 -5 -7 -10 -16 -10 -8 0 -12 5 -9 10 3 6 10 10 16 10 5 0
9 -4 9 -10z m-970 -43 c0 -6 -9 -2 -20 8 -11 10 -20 23 -20 28 0 6 9 2 20 -8
11 -10 20 -23 20 -28z m45 25 c-3 -3 -11 0 -18 7 -9 10 -8 11 6 5 10 -3 15 -9
12 -12z m273 12 c33 -9 27 -25 -10 -22 -40 2 -50 6 -43 19 7 10 21 11 53 3z
m742 -3 c0 -5 -14 -9 -31 -9 -20 1 -26 4 -17 9 18 12 48 11 48 0z m-255 -11
c22 -5 82 -10 134 -12 51 -1 95 -6 97 -9 7 -12 -59 -19 -129 -14 -68 5 -97 -5
-97 -34 0 -12 -14 -14 -47 -5 -13 4 -23 11 -23 16 0 6 11 7 24 4 16 -4 30 0
40 10 20 19 20 25 1 18 -8 -4 -15 -1 -15 5 0 6 -9 11 -19 11 -11 0 -23 5 -26
10 -8 12 8 12 60 0z m312 4 c-3 -3 -12 -4 -19 -1 -8 3 -5 6 6 6 11 1 17 -2 13
-5z m-707 -14 c0 -5 -4 -10 -9 -10 -6 0 -13 5 -16 10 -3 6 1 10 9 10 9 0 16
-4 16 -10z m-220 -22 c10 -6 4 -7 -20 -3 -19 3 -39 10 -45 16 -12 12 41 2 65
-13z m95 -16 l30 -11 -32 3 c-39 5 -55 14 -47 28 4 6 9 7 13 1 3 -6 20 -15 36
-21z m321 17 c3 -5 -5 -9 -18 -9 -22 -1 -22 -1 -4 -15 17 -13 17 -15 3 -15 -9
0 -21 8 -26 18 -7 10 -14 13 -18 7 -10 -13 -43 -16 -43 -4 0 5 -15 12 -32 17
-26 7 -16 9 50 9 45 0 85 -4 88 -8z m121 -25 c-3 -3 -12 -4 -19 -1 -8 3 -5 6
6 6 11 1 17 -2 13 -5z m-327 -8 c0 -3 -4 -8 -10 -11 -5 -3 -10 -1 -10 4 0 6 5
11 10 11 6 0 10 -2 10 -4z m290 -17 c10 -6 4 -7 -15 -3 -16 4 -37 11 -45 15
-10 6 -4 7 15 3 17 -4 37 -11 45 -15z m255 11 c3 -6 -1 -7 -9 -4 -18 7 -21 14
-7 14 6 0 13 -4 16 -10z m-835 -15 c7 -8 8 -15 2 -15 -5 0 -15 7 -22 15 -7 8
-8 15 -2 15 5 0 15 -7 22 -15z m95 5 c3 -5 -3 -10 -14 -10 -12 0 -21 5 -21 10
0 6 6 10 14 10 8 0 18 -4 21 -10z m57 -11 c16 -9 18 -13 7 -20 -14 -8 -39 6
-39 22 0 12 7 11 32 -2z m268 7 c0 -3 -4 -8 -10 -11 -5 -3 -10 -1 -10 4 0 6 5
11 10 11 6 0 10 -2 10 -4z m207 -2 c-3 -3 -12 -4 -19 -1 -8 3 -5 6 6 6 11 1
17 -2 13 -5z m-427 -14 c0 -5 -4 -10 -10 -10 -5 0 -10 5 -10 10 0 6 5 10 10
10 6 0 10 -4 10 -10z m85 -10 c3 -5 -1 -10 -9 -10 -8 0 -18 5 -21 10 -3 6 1
10 9 10 8 0 18 -4 21 -10z m-75 -20 c0 -5 -4 -12 -10 -15 -5 -3 -10 0 -10 7 0
10 -2 10 -9 -1 -6 -9 -11 -10 -15 -3 -4 6 -14 9 -24 6 -11 -4 -13 -3 -5 3 16
11 73 14 73 3z m470 -10 c0 -5 -7 -10 -15 -10 -8 0 -15 5 -15 10 0 6 7 10 15
10 8 0 15 -4 15 -10z m104 -2 c-3 -4 -18 -7 -34 -6 -37 3 -29 17 10 16 16 -1
27 -5 24 -10z m-474 -31 c0 -5 -4 -5 -10 -2 -5 3 -10 14 -10 23 0 15 2 15 10
2 5 -8 10 -19 10 -23z m20 -27 c0 -12 -8 -12 -35 0 -18 8 -17 9 8 9 15 1 27
-3 27 -9z m200 -20 c0 -5 -2 -10 -4 -10 -3 0 -8 5 -11 10 -3 6 -1 10 4 10 6 0
11 -4 11 -10z m-118 -42 c-6 -6 -15 -8 -19 -4 -4 4 -1 11 7 16 19 12 27 3 12
-12z m-581 -14 l24 -27 -27 18 c-16 9 -28 21 -28 26 0 14 5 11 31 -17z m359 6
c-24 -15 -36 -11 -14 4 10 8 21 12 24 10 2 -3 -2 -9 -10 -14z m345 10 c16 -7
13 -9 -17 -9 -21 -1 -38 4 -38 9 0 12 27 12 55 0z m55 -4 c0 -11 -19 -15 -25
-6 -3 5 1 10 9 10 9 0 16 -2 16 -4z m30 -6 c0 -5 -5 -10 -11 -10 -5 0 -7 5 -4
10 3 6 8 10 11 10 2 0 4 -4 4 -10z m-560 -10 c0 -5 -5 -10 -11 -10 -5 0 -7 5
-4 10 3 6 8 10 11 10 2 0 4 -4 4 -10z m315 -10 c3 -5 -1 -10 -10 -10 -9 0 -13
5 -10 10 3 6 8 10 10 10 2 0 7 -4 10 -10z m-365 -106 c0 -3 -3 -4 -7 -2 -76
37 -103 53 -103 59 0 4 -9 11 -20 14 -11 3 -20 10 -20 15 0 5 34 -11 75 -36
41 -25 75 -48 75 -50z m-75 76 c3 -5 2 -10 -4 -10 -5 0 -13 5 -16 10 -3 6 -2
10 4 10 5 0 13 -4 16 -10z m140 0 c3 -5 1 -10 -4 -10 -6 0 -11 5 -11 10 0 6 2
10 4 10 3 0 8 -4 11 -10z m79 -19 c3 -4 -6 -6 -19 -3 -14 2 -25 6 -25 8 0 8
39 4 44 -5z m63 3 c-3 -3 -12 -4 -19 -1 -8 3 -5 6 6 6 11 1 17 -2 13 -5z
m-352 -52 c-7 -7 -45 29 -45 41 0 6 11 0 25 -13 14 -13 23 -26 20 -28z m390
39 c-3 -6 3 -15 12 -21 17 -11 17 -11 0 -6 -10 3 -25 6 -33 6 -8 0 -11 6 -8
15 4 8 13 15 21 15 8 0 12 -4 8 -9z m124 -17 c10 -9 -56 -3 -69 7 -11 7 -4 8
25 3 22 -4 42 -8 44 -10z m-59 -14 c12 -7 10 -9 -8 -7 -12 0 -22 5 -22 9 0 11
12 10 30 -2z m-406 -32 c-3 -5 -12 -4 -20 3 -19 16 -18 18 6 12 11 -3 17 -9
14 -15z m291 12 c3 -6 -1 -7 -9 -4 -18 7 -21 14 -7 14 6 0 13 -4 16 -10z m305
0 c0 -5 -5 -10 -11 -10 -5 0 -7 5 -4 10 3 6 8 10 11 10 2 0 4 -4 4 -10z m-790
-21 c0 -6 -4 -7 -10 -4 -5 3 -10 11 -10 16 0 6 5 7 10 4 6 -3 10 -11 10 -16z
m230 -9 c0 -5 -2 -10 -4 -10 -3 0 -8 5 -11 10 -3 6 -1 10 4 10 6 0 11 -4 11
-10z m127 4 c-3 -3 -12 -4 -19 -1 -8 3 -5 6 6 6 11 1 17 -2 13 -5z m-222 -84
c3 -5 2 -10 -4 -10 -5 0 -13 5 -16 10 -3 6 -2 10 4 10 5 0 13 -4 16 -10z
m1285 6 c0 -2 -8 -10 -17 -17 -16 -13 -17 -12 -4 4 13 16 21 21 21 13z m-1355
-67 c16 -16 -30 -10 -51 7 -18 15 -18 15 11 9 17 -4 34 -11 40 -16z m365 -19
c13 -8 13 -10 -2 -10 -9 0 -20 5 -23 10 -8 13 5 13 25 0z m110 -20 c0 -13 -20
-13 -40 0 -12 8 -9 10 13 10 15 0 27 -4 27 -10z m-353 -6 c-3 -3 -12 -4 -19
-1 -8 3 -5 6 6 6 11 1 17 -2 13 -5z m213 -4 c13 -9 13 -10 0 -9 -8 0 -24 4
-35 9 l-20 9 20 0 c11 0 27 -4 35 -9z m-313 -6 c-3 -3 -12 -4 -19 -1 -8 3 -5
6 6 6 11 1 17 -2 13 -5z m578 -4 c3 -5 2 -10 -4 -10 -5 0 -13 5 -16 10 -3 6
-2 10 4 10 5 0 13 -4 16 -10z m-128 -14 c10 -10 -61 -7 -77 4 -11 7 -2 9 28 6
23 -2 46 -6 49 -10z m-416 -53 c13 -16 12 -17 -3 -4 -10 7 -18 15 -18 17 0 8
8 3 21 -13z m504 -83 c-3 -5 -12 -10 -18 -10 -7 0 -6 4 3 10 19 12 23 12 15 0z
m806 -148 c49 -49 79 -60 37 -14 l-23 25 22 -12 c26 -13 39 -56 38 -128 0 -28
2 -51 5 -51 19 2 18 -6 -3 -34 -14 -19 -24 -46 -24 -64 1 -34 -10 -57 -23 -49
-4 3 -11 -2 -14 -11 -6 -14 -17 -16 -77 -10 -38 3 -77 10 -87 15 -9 5 -39 20
-67 32 -59 27 -151 115 -161 154 -6 23 1 34 42 77 59 60 103 84 186 102 95 20
97 20 149 -32z m-1191 34 c0 -11 -19 -15 -25 -6 -3 5 1 10 9 10 9 0 16 -2 16
-4z m226 -176 c8 0 14 -3 14 -8 0 -4 -19 -6 -41 -4 -28 3 -37 7 -28 13 8 5 20
7 27 4 8 -3 20 -5 28 -5z m51 -16 c-3 -3 -12 -4 -19 -1 -8 3 -5 6 6 6 11 1 17
-2 13 -5z m373 -18 c0 -2 -7 -7 -16 -10 -8 -3 -12 -2 -9 4 6 10 25 14 25 6z
m-200 -361 c0 -2 -10 -9 -22 -15 -22 -11 -22 -10 -4 4 21 17 26 19 26 11z"/>
<path d="M1875 4370 c3 -5 8 -10 11 -10 2 0 4 5 4 10 0 6 -5 10 -11 10 -5 0
-7 -4 -4 -10z"/>
<path d="M768 4953 c7 -3 16 -2 19 1 4 3 -2 6 -13 5 -11 0 -14 -3 -6 -6z"/>
<path d="M436 4778 c-13 -42 -13 -58 -1 -58 17 0 29 32 14 41 -6 4 -8 12 -5
18 4 6 5 11 1 11 -3 0 -7 -6 -9 -12z"/>
<path d="M2230 4635 c-7 -9 -8 -15 -2 -15 5 0 12 7 16 15 3 8 4 15 2 15 -2 0
-9 -7 -16 -15z"/>
<path d="M1610 4610 c-8 -5 -12 -12 -9 -15 4 -3 12 1 19 10 14 17 11 19 -10 5z"/>
<path d="M790 4583 c0 -13 5 -23 10 -23 13 0 13 11 0 30 -8 12 -10 11 -10 -7z"/>
<path d="M1550 4563 c-21 -22 -22 -24 -4 -15 23 12 51 42 38 41 -5 0 -20 -12
-34 -26z"/>
</g>
</svg>
