<svg width="407" height="132" viewBox="0 0 407 132" fill="none" xmlns="http://www.w3.org/2000/svg">
<path opacity="0.7" d="M402.365 119.962C402.215 120.511 401.562 121.663 398.798 122.933C396.086 124.18 392.027 125.202 386.535 125.858C375.597 127.165 360.076 126.899 340.966 125.06C302.82 121.388 251.24 111.536 195.313 96.3386C139.387 81.1408 89.9144 63.5313 55.1566 47.3916C37.7443 39.3062 24.2235 31.6802 15.4509 25.017C11.0466 21.6717 8.06346 18.7357 6.35512 16.2877C4.61449 13.7934 4.6338 12.4694 4.78304 11.9202C4.93228 11.371 5.58576 10.2193 8.34937 8.94905C11.0617 7.70239 15.1206 6.67995 20.6122 6.02388C31.5506 4.71711 47.0715 4.98304 66.1812 6.82239C104.327 10.494 155.908 20.3456 211.834 35.5433C267.76 50.7411 317.233 68.3506 351.991 84.4903C369.403 92.5757 382.924 100.202 391.697 106.865C396.101 110.21 399.084 113.146 400.792 115.594C402.533 118.088 402.514 119.413 402.365 119.962Z" stroke="url(#paint0_linear_1_18)" stroke-width="9"/>
<defs>
<linearGradient id="paint0_linear_1_18" x1="239.683" y1="-9.73828" x2="203.301" y2="103.172" gradientUnits="userSpaceOnUse">
<stop stop-color="#C200FF"/>
<stop offset="1" stop-color="#1793BA" stop-opacity="0"/>
</linearGradient>
</defs>
</svg>
